<?xml version="1.0" encoding="UTF-8" standalone="no"?>
<svg
   width="719.206"
   height="773.934"
   viewBox="0 0 190.29 204.77"
   version="1.1"
   id="svg6"
   sodipodi:docname="logo.svg"
   inkscape:export-filename="logo.png"
   inkscape:export-xdpi="96"
   inkscape:export-ydpi="96"
   inkscape:version="1.2.1 (9c6d41e410, 2022-07-14)"
   xmlns:inkscape="http://www.inkscape.org/namespaces/inkscape"
   xmlns:sodipodi="http://sodipodi.sourceforge.net/DTD/sodipodi-0.dtd"
   xmlns="http://www.w3.org/2000/svg"
   xmlns:svg="http://www.w3.org/2000/svg">
  <defs
     id="defs10">
    <inkscape:perspective
       sodipodi:type="inkscape:persp3d"
       inkscape:vp_x="9.8439589e-15 : -160.76926 : 0"
       inkscape:vp_y="866.02604 : -500.00005 : 0"
       inkscape:vp_z="198.83411 : 114.79685 : 0"
       inkscape:persp3d-origin="95.145 : 68.256667 : 1"
       id="perspective852" />
    <linearGradient
       id="linearGradient976"
       inkscape:swatch="solid">
      <stop
         style="stop-color:#000000;stop-opacity:1;"
         offset="0"
         id="stop974" />
    </linearGradient>
  </defs>
  <sodipodi:namedview
     id="namedview8"
     pagecolor="#ffffff"
     bordercolor="#000000"
     borderopacity="0.25"
     inkscape:showpageshadow="2"
     inkscape:pageopacity="0.0"
     inkscape:pagecheckerboard="0"
     inkscape:deskcolor="#d1d1d1"
     showgrid="false"
     inkscape:zoom="0.64"
     inkscape:cx="267.96875"
     inkscape:cy="273.4375"
     inkscape:window-width="1920"
     inkscape:window-height="1009"
     inkscape:window-x="-8"
     inkscape:window-y="-8"
     inkscape:window-maximized="1"
     inkscape:current-layer="svg6" />
  <g
     id="layer3"
     inkscape:label="I-3d"
     style="display:inline">
    <g
       sodipodi:type="inkscape:box3d"
       id="g6201"
       style="opacity:1;fill:#8686bf;fill-opacity:0.5;stroke:#000000;stroke-width:85.682;stroke-dasharray:none"
       inkscape:perspectiveID="#perspective852"
       inkscape:corner0="-0.28486988 : 0.10895176 : 0 : 1"
       inkscape:corner7="-0.35894991 : 0.09687129 : -0.47451357 : 1">
      <path
         sodipodi:type="inkscape:box3dside"
         id="path6209"
         style="display:inline;fill:#00ff00;fill-opacity:1;fill-rule:evenodd;stroke:none;stroke-linejoin:round"
         inkscape:box3dsidetype="14"
         d="m 189.5,137.96744 -10.462,-6.04024 -94.349454,54.47269 10.461998,6.04023 z"
         points="179.038,131.9272 84.688546,186.39989 95.150544,192.44012 189.5,137.96744 "
         inkscape:label="T" />
      <path
         sodipodi:type="inkscape:box3dside"
         id="path6205"
         style="fill:#ff0000;fill-opacity:1;fill-rule:evenodd;stroke:none;stroke-linejoin:round"
         inkscape:box3dsidetype="5"
         d="m 189.5,149.87724 v -11.9098 l -94.349456,54.47268 v 11.9098 z"
         points="189.5,137.96744 95.150544,192.44012 95.150544,204.34992 189.5,149.87724 "
         inkscape:label="R" />
    </g>
    <g
       sodipodi:type="inkscape:box3d"
       id="g6187"
       style="display:inline;opacity:1;fill:#8686bf;fill-opacity:0.5;stroke:#000000;stroke-width:85.682;stroke-dasharray:none"
       inkscape:perspectiveID="#perspective852"
       inkscape:corner0="0.017084263 : 0.03561969 : 0 : 1"
       inkscape:corner7="-0.82452898 : 0.04832539 : 0.053873723 : 1">
      <path
         sodipodi:type="inkscape:box3dside"
         id="path6193"
         style="fill:#0000ff;fill-opacity:1;fill-rule:evenodd;stroke:none;stroke-linejoin:round"
         inkscape:box3dsidetype="3"
         d="M 125.99254,161.75615 V 26.450565 l 11.00346,6.352852 0,135.305583 z"
         points="125.99254,26.450565 136.996,32.803417 136.996,168.109 125.99254,161.75615 "
         inkscape:label="L" />
      <path
         sodipodi:type="inkscape:box3dside"
         id="path6197"
         style="fill:#ff0202;fill-opacity:1;fill-rule:evenodd;stroke:none;stroke-linejoin:round"
         inkscape:box3dsidetype="13"
         d="m 136.996,168.109 0,-135.305583 10.71193,-6.184535 V 161.92446 Z"
         points="136.996,32.803417 147.70793,26.618882 147.70793,161.92446 136.996,168.109 "
         inkscape:label="R" />
    </g>
    <g
       sodipodi:type="inkscape:box3d"
       id="g6173"
       style="display:inline;opacity:1;fill:#8686bf;fill-opacity:0.5;stroke:#000000;stroke-width:85.682;stroke-dasharray:none"
       inkscape:perspectiveID="#perspective852"
       inkscape:corner0="-0.45889353 : 4.6556262e-06 : 0 : 1"
       inkscape:corner7="-0.53088822 : -0.01231226 : 0.47451357 : 1">
      <path
         sodipodi:type="inkscape:box3dside"
         id="path6181"
         style="fill:#00ff01;fill-opacity:1;fill-rule:evenodd;stroke:none;stroke-linejoin:round"
         inkscape:box3dsidetype="14"
         d="M 95.149,55.851463 84.482234,49.693002 178.83169,-4.7796779 189.49845,1.3787825 Z"
         points="84.482234,49.693002 178.83169,-4.7796779 189.49845,1.3787825 95.149,55.851463 "
         inkscape:label="T" />
      <path
         sodipodi:type="inkscape:box3dside"
         id="path6177"
         style="fill:#ff0000;fill-opacity:1;fill-rule:evenodd;stroke:none;stroke-linejoin:round"
         inkscape:box3dsidetype="5"
         d="M 95.149,67.426 V 55.851463 L 189.49845,1.3787825 V 12.953319 Z"
         points="95.149,55.851463 189.49845,1.3787825 189.49845,12.953319 95.149,67.426 "
         inkscape:label="R" />
    </g>
  </g>
  <g
     id="layer1"
     inkscape:label="S-3d"
     style="display:inline">
    <g
       sodipodi:type="inkscape:box3d"
       id="g6052"
       style="opacity:1;fill:#8686bf;fill-opacity:0.5;stroke:#000000;stroke-width:85.682;stroke-dasharray:none"
       inkscape:perspectiveID="#perspective852"
       inkscape:corner0="0.38969792 : -0.10894822 : 0 : 1"
       inkscape:corner7="0.31870034 : 6.4388665e-06 : 0.051315498 : 1">
      <path
         sodipodi:type="inkscape:box3dside"
         id="path6058"
         style="fill:#0000fa;fill-opacity:1;fill-rule:evenodd;stroke:none;stroke-linejoin:round"
         inkscape:box3dsidetype="3"
         d="m 0.7930042,149.377 v -11.41423 l 94.3575398,54.47735 v 11.41424 z"
         points="0.7930042,137.96277 95.150544,192.44012 95.150544,203.85436 0.7930042,149.377 "
         inkscape:label="L" />
      <path
         sodipodi:type="inkscape:box3dside"
         id="path6060"
         style="fill:#00ff00;fill-opacity:1;fill-rule:evenodd;stroke:none;stroke-linejoin:round"
         inkscape:box3dsidetype="14"
         d="M 0.7930042,137.96277 95.150544,192.44012 105.35381,186.54926 10.996272,132.07191 Z"
         points="95.150544,192.44012 105.35381,186.54926 10.996272,132.07191 0.7930042,137.96277 "
         inkscape:label="T" />
    </g>
    <g
       sodipodi:type="inkscape:box3d"
       id="g6038"
       style="display:inline;opacity:1;fill:#8686bf;fill-opacity:0.5;stroke:#000000;stroke-width:85.682;stroke-dasharray:none"
       inkscape:perspectiveID="#perspective852"
       inkscape:corner0="0.38969862 : 3.5009261e-06 : 0 : 1"
       inkscape:corner7="-0.106615 : -0.012987357 : 0.056678872 : 1">
      <path
         sodipodi:type="inkscape:box3dside"
         id="path6044"
         style="fill:#0000fe;fill-opacity:1;fill-rule:evenodd;stroke:none;stroke-linejoin:round"
         inkscape:box3dsidetype="3"
         d="m 95.148,203.853 v -79.792 l -11.250417,-6.49543 v 79.792 z"
         points="95.148,124.061 83.897583,117.56557 83.897583,197.35757 95.148,203.853 "
         inkscape:label="L" />
      <path
         sodipodi:type="inkscape:box3dside"
         id="path6042"
         style="fill:#ff0000;fill-opacity:1;fill-rule:evenodd;stroke:none;stroke-linejoin:round"
         inkscape:box3dsidetype="5"
         d="m 95.148,203.853 v -79.792 l 11.26969,-6.50656 v 79.792 z"
         points="95.148,124.061 106.41769,117.55444 106.41769,197.34644 95.148,203.853 "
         inkscape:label="R" />
    </g>
    <g
       sodipodi:type="inkscape:box3d"
       id="g2008"
       style="display:inline;opacity:1;fill:#8686bf;fill-opacity:0.5;stroke:#000000;stroke-width:22.67;stroke-dasharray:none"
       inkscape:perspectiveID="#perspective852"
       inkscape:corner0="-0.034587206 : -0.096746067 : 0 : 1"
       inkscape:corner7="-0.53088854 : -0.10894822 : 0.053737087 : 1">
      <path
         sodipodi:type="inkscape:box3dside"
         id="path2014"
         style="fill:#0202ff;fill-opacity:1;fill-rule:evenodd;stroke:none;stroke-width:22.67;stroke-linejoin:round;stroke-dasharray:none"
         inkscape:box3dsidetype="3"
         d="M 11.360383,87.266054 V 7.4760294 L 0.7930042,1.3749503 V 81.164975 Z"
         points="11.360383,7.4760294 0.7930042,1.3749503 0.7930042,81.164975 11.360383,87.266054 "
         inkscape:label="L" />
      <path
         sodipodi:type="inkscape:box3dside"
         id="path2012"
         style="fill:#ff0000;fill-opacity:1;fill-rule:evenodd;stroke:none;stroke-width:22.67;stroke-linejoin:round;stroke-dasharray:none"
         inkscape:box3dsidetype="5"
         d="M 11.360383,87.266054 V 7.4760294 L 22.045145,1.3071791 V 81.097204 Z"
         points="11.360383,7.4760294 22.045145,1.3071791 22.045145,81.097204 11.360383,87.266054 "
         inkscape:label="R" />
    </g>
    <g
       sodipodi:type="inkscape:box3d"
       id="g6024"
       style="display:inline;opacity:1;fill:#8686bf;fill-opacity:0.5;stroke:#000000;stroke-width:85.682;stroke-dasharray:none"
       inkscape:perspectiveID="#perspective852"
       inkscape:corner0="-0.034587034 : 3.5009261e-06 : 0 : 1"
       inkscape:corner7="-0.10661101 : -0.096643741 : 0.055793951 : 1">
      <path
         sodipodi:type="inkscape:box3dside"
         id="path6030"
         style="fill:#0101ff;fill-opacity:1;fill-rule:evenodd;stroke:none;stroke-linejoin:round"
         inkscape:box3dsidetype="3"
         d="M 95.148,135.64089 V 124.06164 L 11.449,75.737999 v 11.579246 z"
         points="95.148,124.06164 11.449,75.737999 11.449,87.317245 95.148,135.64089 "
         inkscape:label="L" />
      <path
         sodipodi:type="inkscape:box3dside"
         id="path6032"
         style="fill:#00ff00;fill-opacity:1;fill-rule:evenodd;stroke:none;stroke-linejoin:round"
         inkscape:box3dsidetype="14"
         d="M 95.148,124.06164 11.449,75.737999 22.542737,69.333028 106.24174,117.65667 Z"
         points="11.449,75.737999 22.542737,69.333028 106.24174,117.65667 95.148,124.06164 "
         inkscape:label="T" />
    </g>
    <g
       sodipodi:type="inkscape:box3d"
       id="g1994"
       style="display:inline;opacity:1;fill:#8686bf;fill-opacity:0.5;stroke:#000000;stroke-width:22.67;stroke-dasharray:none"
       inkscape:perspectiveID="#perspective852"
       inkscape:corner0="-0.53088822 : 4.6556262e-06 : 0 : 1"
       inkscape:corner7="-0.45889353 : -0.10894822 : 0.058157523 : 1">
      <path
         sodipodi:type="inkscape:box3dside"
         id="path2000"
         style="fill:#0000ff;fill-opacity:1;fill-rule:evenodd;stroke:none;stroke-linejoin:round"
         inkscape:box3dsidetype="3"
         d="M 95.149,55.851463 95.149,67.426 0.7930042,12.949539 V 1.3750017 Z"
         points="95.149,67.426 0.7930042,12.949539 0.7930042,1.3750017 95.149,55.851463 "
         inkscape:label="L" />
      <path
         sodipodi:type="inkscape:box3dside"
         id="path1996"
         style="fill:#01ff01;fill-opacity:1;fill-rule:evenodd;stroke:none;stroke-linejoin:round"
         inkscape:box3dsidetype="6"
         d="M 95.149,55.851463 0.7930042,1.3750017 12.3567,-5.3013008 106.7127,49.17516 Z"
         points="0.7930042,1.3750017 12.3567,-5.3013008 106.7127,49.17516 95.149,55.851463 "
         inkscape:label="T" />
    </g>
  </g>
  <g
     fill-opacity="0.3"
     stroke="#000"
     stroke-miterlimit="3"
     stroke-width="1.587"
     id="g4"
     inkscape:label="layer"
     style="display:none;stroke:none">
    <path
       d="m 0.793,1.375 v 79.79 l 41.85,24.162 41.849,24.162 v 56.632 L 42.643,161.96 0.793,137.798 v 11.579 l 94.355,54.476 47.176,-27.24 47.176,-27.237 v -11.579 l -20.924,12.08 -20.924,12.08 V 37.117 L 189.5,12.956 V 1.377 L 95.148,55.851 47.971,28.613 Z m 10.656,17.731 83.699,48.324 20.924,-12.081 20.924,-12.08 v 124.84 L 116.072,180.19 95.148,192.27 V 124.061 L 53.298,99.9 11.449,75.738 V 47.422 Z m 83.7,36.741 v 11.579 m 0,124.841 v 11.582"
       id="path2"
       style="display:inline;fill:none;fill-opacity:0.3;stroke:#000000;stroke-width:1.58697;stroke-dasharray:none;stroke-opacity:1"
       inkscape:label="stroke" />
    <path
       d="m 0.793,1.375 v 79.79 l 41.85,24.162 41.849,24.162 v 56.632 L 42.643,161.96 0.793,137.798 v 11.579 l 94.355,54.476 47.176,-27.24 47.176,-27.237 v -11.579 l -20.924,12.08 -20.924,12.08 V 37.117 L 189.5,12.956 V 1.377 L 95.148,55.851 47.971,28.613 Z m 10.656,17.731 83.699,48.324 20.924,-12.081 20.924,-12.08 v 124.84 L 116.072,180.19 95.148,192.27 V 124.061 L 53.298,99.9 11.449,75.738 V 47.422 Z m 83.7,36.741 v 11.579 m 0,124.841 v 11.582"
       id="path994"
       style="opacity:0.3;fill-opacity:0.3;stroke:none;stroke-width:1.58697;stroke-dasharray:none"
       inkscape:label="fill" />
  </g>
</svg>
